<?xml version="1.0" encoding="UTF-8" standalone="no"?>
<!-- Created with Inkscape (http://www.inkscape.org/) -->

<svg
   width="102"
   height="126.00001"
   viewBox="0 0 26.987502 33.337502"
   version="1.1"
   id="svg1"
   xmlns="http://www.w3.org/2000/svg"
   xmlns:svg="http://www.w3.org/2000/svg">
  <defs
     id="defs1">
    <linearGradient
       id="swatch90"
       gradientTransform="matrix(0.36044622,0,0,0.24067016,-262.83045,978.59892)">
      <stop
         style="stop-color:#060608;stop-opacity:1;"
         offset="0"
         id="stop90" />
    </linearGradient>
    <linearGradient
       id="swatch40"
       gradientTransform="matrix(0.69793163,0,0,1.0871311,-1201.5046,4614.5142)">
      <stop
         style="stop-color:#b0e3ff;stop-opacity:1;"
         offset="0"
         id="stop40" />
    </linearGradient>
  </defs>
  <g
     id="layer8"
     transform="translate(-297.16692)">
    <path
       id="rect36"
       style="display:inline;fill-rule:nonzero"
       d="m 278.38151,-10.583334 v 33.337501 h 26.9875 v -33.337501 z m 7.79177,9.2299279 h 5.48649 v 2.9853476 h -7.35253 z m 5.91747,0 h 5.48648 l 1.86604,2.9853476 h -7.35252 z m -7.93905,3.234428 h 7.50807 v 1.7249594 a 0.21561465,0.21561465 0 0 0 0.21549,0.2154907 0.21561465,0.21561465 0 0 0 0.21549,-0.2154907 V 1.8810219 h 7.50807 l 0.0713,0.114205 a 0.21561476,0.21561476 0 0 0 0.18293,0.08785 V 13.524239 h -15.9556 V 2.0830768 a 0.21561476,0.21561476 0 0 0 0.18293,-0.08785 z m 3.47265,2.2303549 a 0.38810658,0.38810658 0 0 0 -0.28267,0.090951 0.38810658,0.38810658 0 0 0 -0.0444,0.5472534 L 288.7003,6.40116 a 4.9591396,4.9591396 0 0 0 -1.78387,3.797701 v 0.70745 h 9.91825 v -0.70745 a 4.9591396,4.9591396 0 0 0 -1.77922,-3.8039021 l 1.39785,-1.6453777 a 0.38810658,0.38810658 0 0 0 -0.0444,-0.5472534 0.38810658,0.38810658 0 0 0 -0.28267,-0.090951 0.38810658,0.38810658 0 0 0 -0.26407,0.1353923 l -1.40921,1.6588135 a 0.38810658,0.38810658 0 0 0 -0.0274,0.040308 4.9591396,4.9591396 0 0 0 -2.55023,-0.7064168 4.9591396,4.9591396 0 0 0 -2.5461,0.7090007 0.38810658,0.38810658 0 0 0 -0.0315,-0.042892 l -1.4087,-1.6588135 a 0.38810658,0.38810658 0 0 0 -0.26459,-0.1353923 z m 2.48254,3.8033856 a 0.6957026,0.6957026 0 0 1 0.67593,0.695048 0.69565949,0.69565949 0 0 1 -0.69557,0.6960816 0.6957026,0.6957026 0 0 1 -0.0992,-1.3844117 0.6957026,0.6957026 0 0 1 0.11886,-0.00672 z m 4.04885,0 a 0.6957026,0.6957026 0 0 1 0.67593,0.695048 0.69574573,0.69574573 0 0 1 -0.69557,0.6960816 0.6957026,0.6957026 0 0 1 -0.0992,-1.3844117 0.6957026,0.6957026 0 0 1 0.11886,-0.00672 z"
       transform="translate(18.785379,10.583334)" />
  </g>
</svg>
