<?xml version="1.0" encoding="UTF-8" standalone="no"?>
<!-- Created with Inkscape (http://www.inkscape.org/) -->

<svg
   width="24"
   height="24"
   viewBox="0 0 6.3500005 6.35"
   version="1.1"
   id="svg1"
   xmlns="http://www.w3.org/2000/svg"
   xmlns:svg="http://www.w3.org/2000/svg">
  <defs
     id="defs1">
    <linearGradient
       id="swatch90"
       gradientTransform="matrix(0.36044622,0,0,0.24067016,-262.83045,978.59892)">
      <stop
         style="stop-color:#060608;stop-opacity:1;"
         offset="0"
         id="stop90" />
    </linearGradient>
    <linearGradient
       id="swatch40"
       gradientTransform="matrix(0.69793163,0,0,1.0871311,-1201.5046,4614.5142)">
      <stop
         style="stop-color:#b0e3ff;stop-opacity:1;"
         offset="0"
         id="stop40" />
    </linearGradient>
  </defs>
  <g
     id="layer4"
     style="display:inline"
     transform="translate(-18.523651,-54.443858)">
    <g
       id="g8"
       transform="translate(-34.393053,-8.5140445)">
      <path
         d="m 56.315549,64.66598 c -0.07573,0.002 -0.15027,0.009 -0.22359,0.0193 -0.0029,3.7e-4 -0.0048,0.004 -0.0043,0.009 l 0.10048,0.72966 c 0.04222,-0.006 0.08474,-0.009 0.12731,-0.009 0.028,1.1e-4 0.05597,0.001 0.08388,0.003 l 0.06671,-0.73398 c 4.37e-4,-0.004 -0.0016,-0.008 -0.0046,-0.008 -0.04813,-0.005 -0.09684,-0.008 -0.14594,-0.01 z m 0.23421,0.0209 c -0.0029,-3.6e-4 -0.0057,0.003 -0.0062,0.007 l -0.10035,0.72813 c 0.07137,0.008 0.14177,0.0236 0.21017,0.0456 l 0.24852,-0.68368 c 0.0015,-0.004 4.37e-4,-0.008 -0.0023,-0.009 -0.11221,-0.04 -0.22917,-0.0696 -0.34982,-0.088 z m -0.54511,0.0132 c -0.11902,0.0232 -0.23407,0.0575 -0.34416,0.10175 -0.0026,0.001 -0.0035,0.005 -0.0018,0.009 l 0.27707,0.67376 c 0.06752,-0.0254 0.13739,-0.0443 0.20858,-0.0561 l -0.13304,-0.7219 c -7.84e-4,-0.004 -0.0037,-0.007 -0.0066,-0.007 z m 0.97354,0.10531 c -0.0022,3.6e-4 -0.0044,0.003 -0.0057,0.005 l -0.27605,0.67135 c 0.07,0.0258 0.13718,0.0586 0.20057,0.0979 l 0.39631,-0.60176 c 0.0024,-0.003 0.0024,-0.008 6.4e-5,-0.009 -0.09856,-0.0637 -0.20331,-0.11856 -0.31313,-0.16344 -6.73e-4,-1.7e-4 -0.0014,-1.7e-4 -0.0021,-1.7e-4 z m -1.3949,0.0302 c -7.82e-4,-1.1e-4 -0.0014,-1e-5 -0.0021,3.6e-4 -0.10755,0.0491 -0.20988,0.10789 -0.30569,0.17526 -0.0023,10e-4 -0.0021,0.006 4.42e-4,0.009 l 0.41939,0.58657 c 0.06205,-0.042 0.12819,-0.0776 0.19746,-0.10626 l -0.30359,-0.65996 c -0.0014,-0.003 -0.0038,-0.005 -0.0059,-0.006 z m 1.7786,0.18079 c -7.84e-4,-2e-5 -0.0015,6e-5 -0.0023,3.6e-4 v 1.1e-4 c -0.0016,6.9e-4 -0.0032,0.002 -0.0045,0.003 l -0.4185,0.58543 c 0.06311,0.043 0.1216,0.0925 0.1745,0.1476 l 0.51656,-0.49914 c 0.0032,-0.003 0.004,-0.007 0.002,-0.009 -0.0814,-0.0839 -0.17033,-0.16041 -0.26582,-0.2283 -6.73e-4,-3.7e-4 -0.0013,-3.7e-4 -0.002,-6.9e-4 z m -2.1529,0.0444 v 1.7e-4 c -7.75e-4,7e-5 -0.0014,3.7e-4 -0.0019,6.9e-4 -0.09267,0.0715 -0.17856,0.15128 -0.25666,0.23828 -0.0019,0.002 -7.75e-4,0.006 0.0023,0.009 l 0.53513,0.47967 c 0.0511,-0.0568 0.10801,-0.10824 0.16973,-0.15332 l -0.44178,-0.57074 c -0.0014,-0.001 -0.003,-0.003 -0.0046,-0.003 l 6.4e-5,-6e-5 c -7.75e-4,-3.6e-4 -0.0016,-3.6e-4 -0.0023,-3.6e-4 z m 2.4745,0.2456 c -0.0017,1.8e-4 -0.0036,10e-4 -0.0052,0.003 l -0.53494,0.47955 c 0.05026,0.0571 0.09445,0.11906 0.13195,0.18518 l 0.61628,-0.37513 c 0.0037,-0.002 0.0057,-0.006 0.0042,-0.009 -0.06073,-0.10059 -0.13049,-0.1952 -0.20814,-0.28261 -10e-4,-0.001 -0.0024,-0.001 -0.0041,-0.001 z m -2.7845,0.0567 c -0.0017,-1.1e-4 -0.0032,9e-5 -0.0041,0.001 -0.07422,0.0904 -0.14031,0.18779 -0.19714,0.29088 -0.0014,0.003 6.64e-4,0.006 0.0045,0.008 l 0.633,0.35224 c 0.03442,-0.0673 0.07569,-0.13099 0.12312,-0.18989 l -0.55415,-0.46028 c -0.0017,-0.001 -0.0035,-0.002 -0.0051,-0.003 z m 3.0355,0.299 v 7e-5 c -0.0017,-1.1e-4 -0.0037,3.7e-4 -0.0057,0.001 l -0.63128,0.35122 c 0.03364,0.0656 0.06065,0.13446 0.08057,0.20547 l 0.69398,-0.22239 c 0.0041,-0.001 0.0067,-0.005 0.0058,-0.007 -0.03655,-0.11376 -0.08349,-0.22299 -0.13978,-0.32642 -6.73e-4,-10e-4 -0.002,-0.002 -0.0037,-0.002 z m -3.2727,0.0668 c -0.0017,1.1e-4 -0.003,6.9e-4 -0.0036,0.002 -0.05227,0.10582 -0.09501,0.21716 -0.12706,0.33284 -7.75e-4,0.003 0.002,0.006 0.0062,0.007 l 0.70651,0.1932 c 0.01616,-0.0714 0.03938,-0.14097 0.06932,-0.20776 l -0.64572,-0.32636 c -0.002,-6.8e-4 -0.004,-10e-4 -0.0057,-10e-4 z m -0.14633,0.41608 v 7e-5 c -0.0029,1.1e-4 -0.0054,10e-4 -0.0058,0.003 -0.02681,0.11772 -0.04266,0.23957 -0.04642,0.36432 -9.1e-5,0.003 0.0035,0.005 0.0079,0.005 h 0.74034 c 7.75e-4,-0.0708 0.0085,-0.14134 0.02289,-0.21069 l -0.71579,-0.16143 c -0.0011,-1.1e-4 -0.0021,-3.7e-4 -0.0031,-3.7e-4 z m 3.5945,6.9e-4 -0.71605,0.15707 c 0.0178,0.0766 0.0273,0.15479 0.0283,0.23339 -1e-6,0.6034 -0.48918,1.0926 -1.0926,1.0926 -0.10964,-0.001 -0.21852,-0.0188 -0.32292,-0.0523 l -0.21691,0.69913 c 0.005,0.002 0.0099,0.003 0.01488,0.006 0.01931,0.005 0.03872,0.01 0.05819,0.0144 0.05792,0.0156 0.11653,0.0284 0.17571,0.0382 0.02724,0.004 0.05463,0.008 0.08203,0.0104 0.05337,0.006 0.10693,0.0101 0.16063,0.0116 0.02795,6.9e-4 0.05597,0.001 0.08394,6.9e-4 0.05768,-0.001 0.11524,-0.005 0.17253,-0.0123 0.02235,-0.002 0.0447,-0.004 0.06696,-0.007 0.07881,-0.0118 0.15673,-0.0289 0.23332,-0.0509 0.01218,-0.004 0.02428,-0.008 0.03637,-0.0127 0.06383,-0.0199 0.12653,-0.0434 0.18779,-0.0701 0.02426,-0.0111 0.0483,-0.0228 0.07205,-0.035 0.04875,-0.0239 0.0964,-0.0499 0.14283,-0.078 0.02401,-0.0146 0.04766,-0.0297 0.07097,-0.0454 0.04558,-0.031 0.08974,-0.064 0.13234,-0.099 0.02012,-0.0157 0.03989,-0.0319 0.05933,-0.0485 0.05921,-0.052 0.115,-0.10773 0.167,-0.16693 l 0.0014,-10e-4 c 0.05639,-0.0652 0.1081,-0.13425 0.15472,-0.20674 l 0.0011,-10e-4 c 0.04648,-0.0724 0.08777,-0.14806 0.12356,-0.22633 l 0.0012,-0.003 c 0.0357,-0.0783 0.06581,-0.15898 0.09011,-0.24152 l 5.64e-4,-0.002 c 0.02423,-0.0826 0.04262,-0.16689 0.05494,-0.25214 l 2e-4,-0.002 c 0.01215,-0.085 0.01833,-0.17077 0.01838,-0.25666 2.8e-5,-0.002 3.9e-5,-0.003 6.4e-5,-0.005 v -6.6e-4 c -5.9e-5,-0.0277 -7.84e-4,-0.0555 -0.0021,-0.0832 l -6.3e-5,-0.002 -6.4e-5,-0.001 c -0.0014,-0.0277 -0.0035,-0.0554 -0.0062,-0.083 l -2.54e-4,-0.003 c -2.37e-4,-0.003 -5.82e-4,-0.005 -8.39e-4,-0.009 -0.0027,-0.0265 -0.0059,-0.0528 -0.0098,-0.0791 -4.91e-4,-0.003 -7.84e-4,-0.005 -0.0013,-0.008 -0.004,-0.0265 -0.0085,-0.0529 -0.01367,-0.0791 -7.43e-4,-0.004 -0.0016,-0.008 -0.0024,-0.0113 -0.002,-0.009 -0.004,-0.0182 -0.0061,-0.0272 z m -2.8953,0.41647 -0.73977,0.0353 c -0.0044,1.1e-4 -0.0078,0.003 -0.0076,0.006 0.0089,0.12344 0.02962,0.24369 0.06105,0.35961 7.75e-4,0.003 0.0048,0.004 0.009,0.003 l 0.70651,-0.19319 c -0.01646,-0.069 -0.02626,-0.13952 -0.02919,-0.21043 z m 0.03873,0.25436 -0.69443,0.22239 c -0.0042,10e-4 -0.0068,0.005 -0.0059,0.007 0.03655,0.11376 0.08355,0.22286 0.13984,0.32629 v 6e-5 c 0.0014,0.003 0.0055,0.003 0.0093,6.9e-4 l 0.63306,-0.35224 c -0.03405,-0.0652 -0.0615,-0.13377 -0.08191,-0.20451 z m 0.10429,0.24535 -0.61812,0.37633 c -0.0037,0.002 -0.0056,0.006 -0.0042,0.009 0.06073,0.10058 0.13056,0.19506 0.2082,0.28248 0.0019,0.002 0.0059,10e-4 0.0092,-0.001 l 0.53513,-0.47967 c -0.04967,-0.0574 -0.09329,-0.11979 -0.13017,-0.18614 z m 0.16381,0.2199 -0.51802,0.5006 c -0.0032,0.003 -0.004,0.007 -0.0021,0.009 0.0814,0.0839 0.17033,0.1604 0.26582,0.2283 0.0023,10e-4 0.0061,5e-5 0.0087,-0.003 l 0.41946,-0.58664 c -0.06287,-0.0432 -0.12108,-0.0927 -0.17373,-0.14791 z m 0.21291,0.17399 -0.39662,0.60247 c -0.0024,0.003 -0.0024,0.008 -6.4e-5,0.009 0.09856,0.0637 0.2033,0.11856 0.31313,0.16343 0.0026,0.001 0.0061,-0.001 0.0078,-0.005 l 0.27714,-0.67363 c -0.07018,-0.0252 -0.13765,-0.0575 -0.20133,-0.0963 z"
         id="path1-4" />
      <path
         d="m 56.477569,65.57598 c -0.34296,-3e-5 -0.621,0.27801 -0.62097,0.62097 6.6e-5,0.3429 0.27807,0.62084 0.62097,0.62081 0.3429,3e-5 0.6209,-0.27791 0.62097,-0.62081 2.5e-5,-0.34296 -0.27801,-0.621 -0.62097,-0.62097 z"
         id="path2" />
      <path
         d="m 56.185669,63.23598 c -1.2276,0.0241 -2.3999,0.85673 -2.8105,2.0166 -0.28425,0.77203 -0.26394,1.668 0.11362,2.405 0.18915,0.26975 0.44752,0.48133 0.70241,0.6861 0.60722,0.45529 1.368,0.74345 2.1345,0.67727 0.10995,-0.009 0.24784,-0.019 0.31384,-0.11966 0.06476,-0.12909 -0.07244,-0.28838 -0.21039,-0.2513 -0.30149,0.008 -0.60636,-0.0183 -0.89215,-0.1201 -0.6842,-0.23019 -1.2552,-0.79466 -1.4661,-1.4822 -0.20159,-0.61219 -0.12607,-1.3232 0.19544,-1.8751 0.30562,-0.52785 0.81908,-0.92113 1.4074,-1.082 0.76651,-0.21235 1.6319,0.009 2.206,0.56079 0.43638,0.41666 0.68816,0.99985 0.72508,1.6 0.03742,0.14069 0.0964,0.27431 0.14035,0.41302 0.2135,-0.27568 0.26562,-0.63533 0.25591,-0.97465 0.01157,-0.7597 -0.36584,-1.5289 -1.0157,-1.9369 -0.52383,-0.36011 -1.167,-0.5293 -1.7996,-0.51678 z"
         id="path3-5" />
    </g>
  </g>
</svg>
