<?xml version="1.0" encoding="UTF-8" standalone="no"?>
<!-- Created with Inkscape (http://www.inkscape.org/) -->

<svg
   width="102"
   height="126.00001"
   viewBox="0 0 26.987502 33.337502"
   version="1.1"
   id="svg1"
   xml:space="preserve"
   xmlns="http://www.w3.org/2000/svg"
   xmlns:svg="http://www.w3.org/2000/svg"><defs
     id="defs1"><linearGradient
       id="swatch90"
       gradientTransform="matrix(0.36044622,0,0,0.24067016,-262.83045,978.59892)"><stop
         style="stop-color:#060608;stop-opacity:1;"
         offset="0"
         id="stop90" /></linearGradient><linearGradient
       id="swatch40"
       gradientTransform="matrix(0.69793163,0,0,1.0871311,-1201.5046,4614.5142)"><stop
         style="stop-color:#b0e3ff;stop-opacity:1;"
         offset="0"
         id="stop40" /></linearGradient></defs><g
     id="layer7"><g
       id="g4"
       transform="matrix(0.04867261,0,0,0.04867261,3.4395221,6.6145299)"
       style="display:inline;fill-opacity:1;stroke-width:10.5263"><path
         style="fill-opacity:1;stroke-width:10.5263"
         d="M 311.358,136.395 H 101.779 c -4.662,0 -8.441,3.779 -8.441,8.441 v 175.749 c 0,4.662 3.779,8.441 8.441,8.441 h 37.363 v 59.228 c 0,13.742 11.14,24.883 24.883,24.883 v 0 c 13.742,0 24.883,-11.14 24.883,-24.883 v -59.228 h 34.803 v 59.228 c 0,13.742 11.14,24.883 24.883,24.883 v 0 c 13.742,0 24.883,-11.14 24.883,-24.883 v -59.228 h 37.882 c 4.662,0 8.441,-3.779 8.441,-8.441 V 144.836 c -0.001,-4.662 -3.78,-8.441 -8.442,-8.441 z"
         id="path1-7" /><path
         style="fill-opacity:1;stroke-width:10.5263"
         d="m 57.856,136.354 v 0 c -13.742,0 -24.883,11.14 -24.883,24.883 v 101.065 c 0,13.742 11.14,24.883 24.883,24.883 v 0 c 13.742,0 24.883,-11.14 24.883,-24.883 V 161.237 C 82.738,147.495 71.598,136.354 57.856,136.354 Z"
         id="path2-8" /><path
         style="fill-opacity:1;stroke-width:10.5263"
         d="m 355.281,136.354 v 0 c -13.742,0 -24.883,11.14 -24.883,24.883 v 101.065 c 0,13.742 11.14,24.883 24.883,24.883 v 0 c 13.742,0 24.883,-11.14 24.883,-24.883 V 161.237 c 0,-13.742 -11.14,-24.883 -24.883,-24.883 z"
         id="path3" /><path
         style="fill-opacity:1;stroke-width:10.5263"
         d="m 103.475,124.069 h 205.692 c 5.366,0 9.368,-4.943 8.266,-10.195 -6.804,-32.428 -27.45,-59.756 -55.465,-75.543 L 279.552,6.604 c 1.19,-2.148 0.414,-4.855 -1.734,-6.045 -2.153,-1.193 -4.856,-0.414 -6.046,1.734 l -17.717,31.966 c -14.511,-6.734 -30.683,-10.495 -47.734,-10.495 -17.052,0 -33.224,3.761 -47.735,10.495 L 140.869,2.292 c -1.191,-2.149 -3.898,-2.924 -6.045,-1.734 -2.148,1.19 -2.924,3.897 -1.734,6.045 l 17.584,31.727 c -28.015,15.788 -48.661,43.115 -55.465,75.544 -1.103,5.252 2.899,10.195 8.266,10.195 z M 267.697,76.786 c 0,5.282 -4.282,9.565 -9.565,9.565 -5.282,0 -9.565,-4.282 -9.565,-9.565 0,-5.282 4.282,-9.565 9.565,-9.565 5.283,0 9.565,4.283 9.565,9.565 z M 154.508,67.221 c 5.282,0 9.565,4.282 9.565,9.565 0,5.282 -4.282,9.565 -9.565,9.565 -5.282,0 -9.565,-4.282 -9.565,-9.565 0,-5.282 4.282,-9.565 9.565,-9.565 z"
         id="path4" /></g></g></svg>
