<?xml version="1.0" encoding="UTF-8" standalone="no"?>
<!-- Created with Inkscape (http://www.inkscape.org/) -->

<svg
   width="102"
   height="126.00001"
   viewBox="0 0 26.987502 33.337502"
   version="1.1"
   id="svg1"
   xmlns="http://www.w3.org/2000/svg"
   xmlns:svg="http://www.w3.org/2000/svg">
  <defs
     id="defs1">
    <linearGradient
       id="swatch90"
       gradientTransform="matrix(0.36044622,0,0,0.24067016,-262.83045,978.59892)">
      <stop
         style="stop-color:#060608;stop-opacity:1;"
         offset="0"
         id="stop90" />
    </linearGradient>
    <linearGradient
       id="swatch40"
       gradientTransform="matrix(0.69793163,0,0,1.0871311,-1201.5046,4614.5142)">
      <stop
         style="stop-color:#b0e3ff;stop-opacity:1;"
         offset="0"
         id="stop40" />
    </linearGradient>
  </defs>
  <g
     id="layer8"
     transform="translate(-223.19189)">
    <path
       id="rect30"
       style="display:inline;fill-rule:nonzero"
       d="m 204.40669,-10.583334 v 33.337501 h 26.9875 v -33.337501 z m 16.83773,6.6151003 c 0.0415,-0.00367 0.0842,0.0051 0.12351,0.026872 0.1046,0.05792 0.14265,0.1894904 0.0847,0.2940389 l -0.85576,1.5440919 c 1.36356,0.7683929 2.3684,2.09842604 2.69957,3.6767782 0.0536,0.2556281 -0.14138,0.4966106 -0.40256,0.4966106 h -10.01127 c -0.26123,0 -0.45626,-0.2409825 -0.40256,-0.4966106 0.33117,-1.57840083 1.33601,-2.9083366 2.69958,-3.6767782 l -0.85576,-1.5440919 c -0.0579,-0.1045485 -0.0203,-0.2366357 0.0842,-0.2945557 0.1045,-0.05792 0.23655,-0.019848 0.29455,0.084749 l 0.86197,1.5559774 c 0.70629,-0.3277607 1.49341,-0.5110799 2.32337,-0.5110799 0.82992,0 1.61708,0.1833192 2.32337,0.5110799 l 0.86248,-1.5559774 c 0.0362,-0.065342 0.10131,-0.1049836 0.17053,-0.1111044 z m -5.87819,3.27111833 c -0.25714,0 -0.46561,0.20851647 -0.46561,0.46560467 0,0.25713689 0.20852,0.46560467 0.46561,0.46560467 0.25714,0 0.4656,-0.20851645 0.4656,-0.46560467 0,-0.25713688 -0.20851,-0.46560467 -0.4656,-0.46560467 z m 5.04362,0 c -0.25714,0 -0.46561,0.20851647 -0.46561,0.46560467 0,0.25713689 0.20852,0.46560467 0.46561,0.46560467 0.25714,0 0.4656,-0.20851645 0.4656,-0.46560467 0,-0.2570882 -0.20846,-0.46560467 -0.4656,-0.46560467 z M 210.66212,2.668054 c 0.66886,0 1.21073,0.5419211 1.21078,1.2107789 v 4.9190797 c 0,0.6689065 -0.54192,1.2112954 -1.21078,1.2112954 -0.66891,0 -1.21129,-0.5424375 -1.21129,-1.2112954 V 3.8788329 c 0,-0.6689065 0.54243,-1.2107789 1.21129,-1.2107789 z m 14.47612,0 c 0.66891,0 1.2113,0.5419211 1.2113,1.2107789 v 4.9190797 c 0,0.6689065 -0.54244,1.2112954 -1.2113,1.2112954 -0.6689,0 -1.21078,-0.5424375 -1.21078,-1.2112954 V 3.8788329 c 0,-0.6689065 0.54192,-1.2107789 1.21078,-1.2107789 z m -12.33826,0.00207 h 10.20093 c 0.22689,0 0.41077,0.1839165 0.41082,0.4108276 v 8.5540004 c 0,0.226912 -0.18393,0.410828 -0.41082,0.410828 h -1.84382 v 2.882511 c 0,0.668906 -0.54244,1.211296 -1.2113,1.211296 -0.66889,0 -1.21129,-0.542439 -1.21129,-1.211296 V 12.04578 h -1.69395 v 2.882511 c 0,0.668906 -0.54192,1.211296 -1.21078,1.211296 -0.6689,0 -1.2113,-0.542439 -1.2113,-1.211296 V 12.04578 h -1.81849 c -0.22691,0 -0.41083,-0.183916 -0.41083,-0.410828 V 3.0809487 c 0,-0.2269111 0.18392,-0.4108276 0.41083,-0.4108276 z"
       transform="translate(18.785379,10.583334)" />
  </g>
</svg>
