<?xml version="1.0" encoding="UTF-8" standalone="no"?>
<!-- Created with Inkscape (http://www.inkscape.org/) -->

<svg
   width="102"
   height="126.00001"
   viewBox="0 0 26.987502 33.337502"
   version="1.1"
   id="svg1"
   xmlns="http://www.w3.org/2000/svg"
   xmlns:svg="http://www.w3.org/2000/svg">
  <defs
     id="defs1">
    <linearGradient
       id="swatch90"
       gradientTransform="matrix(0.36044622,0,0,0.24067016,-262.83045,978.59892)">
      <stop
         style="stop-color:#060608;stop-opacity:1;"
         offset="0"
         id="stop90" />
    </linearGradient>
    <linearGradient
       id="swatch40"
       gradientTransform="matrix(0.69793163,0,0,1.0871311,-1201.5046,4614.5142)">
      <stop
         style="stop-color:#b0e3ff;stop-opacity:1;"
         offset="0"
         id="stop40" />
    </linearGradient>
  </defs>
  <g
     id="layer7"
     transform="translate(-74.481762)">
    <path
       id="rect1-4"
       class="a"
       d="m 82.273484,9.2300367 -1.86584,2.9853293 h 7.352189 V 9.2300367 Z m 5.917609,0 v 2.9853293 h 7.3522 l -1.86579,-2.9853293 z m -7.938989,3.2342093 -0.0716,0.11456 a 0.21561476,0.21561476 0 0 1 -0.18273,0.0876 v 11.44106 h 15.955479 v -11.44106 a 0.21561476,0.21561476 0 0 1 -0.18278,-0.0876 l -0.0716,-0.11456 h -7.50774 v 1.72491 a 0.21561465,0.21561465 0 0 1 -0.21563,0.21563 0.21561465,0.21561465 0 0 1 -0.21563,-0.21563 v -1.72491 z m 3.472529,2.23065 a 0.38810658,0.38810658 0 0 1 0.26435,0.13544 l 1.40881,1.65845 a 0.38810658,0.38810658 0 0 1 0.0315,0.0432 4.9591396,4.9591396 0 0 1 2.54624,-0.70895 4.9591396,4.9591396 0 0 1 2.55043,0.70631 0.38810658,0.38810658 0 0 1 0.0273,-0.0406 l 1.40895,-1.65845 a 0.38810658,0.38810658 0 0 1 0.26421,-0.13544 0.38810658,0.38810658 0 0 1 0.28284,0.091 0.38810658,0.38810658 0 0 1 0.0445,0.54719 l -1.39814,1.64546 a 4.9591396,4.9591396 0 0 1 1.77908,3.80365 v 0.70774 h -9.918299 v -0.70774 a 4.9591396,4.9591396 0 0 1 1.784229,-3.79754 l -1.4033,-1.65157 a 0.38810658,0.38810658 0 0 1 0.0445,-0.54719 0.38810658,0.38810658 0 0 1 0.28285,-0.091 z m 2.36367,3.80982 a 0.6957026,0.6957026 0 0 0 0.099,1.38435 0.69565949,0.69565949 0 0 0 0.6957,-0.69572 0.6957026,0.6957026 0 0 0 -0.7947,-0.68863 z m 4.04893,0 a 0.6957026,0.6957026 0 0 0 0.0991,1.38435 0.69574573,0.69574573 0 0 0 0.69566,-0.69572 0.6957026,0.6957026 0 0 0 -0.79472,-0.68863 z"
       style="display:inline" />
  </g>
</svg>
