<?xml version="1.0" encoding="UTF-8" standalone="no"?>
<!-- Created with Inkscape (http://www.inkscape.org/) -->

<svg
   width="24"
   height="24"
   viewBox="0 0 6.3500005 6.35"
   version="1.1"
   id="svg1"
   xmlns="http://www.w3.org/2000/svg"
   xmlns:svg="http://www.w3.org/2000/svg">
  <defs
     id="defs1">
    <linearGradient
       id="swatch90"
       gradientTransform="matrix(0.36044622,0,0,0.24067016,-262.83045,978.59892)">
      <stop
         style="stop-color:#060608;stop-opacity:1;"
         offset="0"
         id="stop90" />
    </linearGradient>
    <linearGradient
       id="swatch40"
       gradientTransform="matrix(0.69793163,0,0,1.0871311,-1201.5046,4614.5142)">
      <stop
         style="stop-color:#b0e3ff;stop-opacity:1;"
         offset="0"
         id="stop40" />
    </linearGradient>
  </defs>
  <g
     id="layer4"
     style="display:inline"
     transform="translate(5.0650937,-73.403529)">
    <path
       id="path205"
       d="m -3.4157909,73.403529 c -0.9060467,0 -1.6492934,0.720096 -1.6492934,1.61424 v 3.121907 c 0,0.886573 0.7355067,1.613853 1.6492934,1.613853 h 3.05102009 c 0.90604,0 1.64968671,-0.719707 1.64968671,-1.613853 v -3.129654 c -0.00773,-0.886573 -0.74342001,-1.606493 -1.65720671,-1.606493 z m 0.2744867,1.180546 h 3.866e-4 c 0.0859,-0.004 0.3041334,0.02033 0.6804801,0.269367 0.2097133,-0.05693 0.4348933,-0.0857 0.6582866,-0.08643 0.2234067,6.67e-4 0.4485734,0.0294 0.6582867,0.08643 0.50245339,-0.332507 0.72245339,-0.26394 0.72245339,-0.26394 0.1437867,0.3543 0.053867,0.616467 0.026533,0.680967 0.16862,0.18008 0.2697334,0.409627 0.2697334,0.691047 0,0.98832 -0.61466,1.205186 -1.20013339,1.269686 0.094167,0.07869 0.17784,0.236387 0.17784,0.47594 0,0.34424 -0.002,0.621567 -0.002,0.70616 0,0.0532 0.028533,0.11282 0.1033733,0.125574 -0.2397333,0.0681 -0.49296,0.105026 -0.7553333,0.105026 -0.2628534,0 -0.5163334,-0.0372 -0.75652,-0.10542 0.074853,-0.01273 0.1041666,-0.0717 0.1041666,-0.12518 0,-0.06113 -0.002,-0.223166 -0.00333,-0.437573 -0.7318267,0.154947 -0.8860333,-0.34494 -0.8860333,-0.34494 -0.1198334,-0.297313 -0.2919134,-0.376727 -0.2919134,-0.376727 -0.2388467,-0.158793 0.0178,-0.1558 0.0178,-0.1558 0.2636467,0.0184 0.40242,0.26472 0.40242,0.26472 0.2345267,0.39366 0.6154401,0.279654 0.7652334,0.214327 0.023933,-0.16668 0.092333,-0.279667 0.1667533,-0.344167 -0.58374,-0.06453 -1.19736,-0.285813 -1.19736,-1.271626 0,-0.28142 0.10276,-0.510967 0.2705267,-0.691047 -0.026467,-0.06453 -0.1171867,-0.326667 0.025733,-0.680967 0,0 0.0138,-0.004 0.042,-0.0053 z"
       style="stroke-width:1" />
  </g>
</svg>
