<?xml version="1.0" encoding="UTF-8" standalone="no"?>
<!-- Created with Inkscape (http://www.inkscape.org/) -->

<svg
   width="24"
   height="24"
   viewBox="0 0 6.3500005 6.35"
   version="1.1"
   id="svg1"
   xml:space="preserve"
   xmlns="http://www.w3.org/2000/svg"
   xmlns:svg="http://www.w3.org/2000/svg"><defs
     id="defs1"><linearGradient
       id="swatch90"
       gradientTransform="matrix(0.36044622,0,0,0.24067016,-262.83045,978.59892)"><stop
         style="stop-color:#060608;stop-opacity:1;"
         offset="0"
         id="stop90" /></linearGradient><linearGradient
       id="swatch40"
       gradientTransform="matrix(0.69793163,0,0,1.0871311,-1201.5046,4614.5142)"><stop
         style="stop-color:#b0e3ff;stop-opacity:1;"
         offset="0"
         id="stop40" /></linearGradient></defs><g
     id="layer4"
     style="display:inline"
     transform="translate(-24.984588,-71.018619)"><g
       id="g11"
       transform="translate(11.767969,-5.3833521)"><path
         id="path13"
         style="stroke-width:0.114904"
         d="m 14.866136,76.401969 c -0.906035,0 -1.649512,0.720218 -1.649512,1.614373 v 3.12177 c 0,0.88657 0.735733,1.61386 1.649512,1.61386 h 3.050977 c 0.906035,0 1.649512,-0.71971 1.649512,-1.61386 v -3.12952 c -0.0077,-0.886577 -0.743485,-1.606623 -1.657264,-1.606623 z m 1.51722,0.888833 c 0.414563,0 0.802449,0.11496 1.133265,0.31523 0.05966,0.03649 0.118646,0.0756 0.174666,0.1173 0.02774,0.0209 0.05547,0.0422 0.08216,0.0646 0.02722,0.0219 0.05392,0.04471 0.07958,0.06821 0.07747,0.07041 0.150044,0.14606 0.216524,0.22686 0.02251,0.0266 0.04418,0.05448 0.06511,0.08268 0.04241,0.05581 0.08118,0.11364 0.117305,0.17364 0.05496,0.08971 0.103331,0.18362 0.145211,0.28112 0.02774,0.0652 0.05193,0.13168 0.07338,0.19998 0.03194,0.10223 0.05663,0.20777 0.07338,0.31626 0.0052,0.03596 0.0097,0.07254 0.01344,0.10904 0.0073,0.07303 0.01137,0.14713 0.01137,0.22273 0,0.16794 -0.01968,0.33288 -0.05684,0.49196 0.05758,0.02237 0.112,0.0589 0.16278,0.1142 0.0937,0.10117 0.143397,0.23175 0.123507,0.37466 -0.0031,0.0235 -0.0076,0.04577 -0.01344,0.06717 0.02722,0.04071 0.04842,0.08641 0.06149,0.13591 0.02879,0.10901 0.01957,0.20743 -0.01654,0.29353 0.03926,0.11264 0.02961,0.23262 -0.02274,0.33693 -0.03769,0.07614 -0.09166,0.13488 -0.157613,0.18758 -0.07957,0.06258 -0.178318,0.11633 -0.297656,0.16743 -0.142373,0.0605 -0.316272,0.11708 -0.395842,0.13798 -0.203618,0.0527 -0.399507,0.08533 -0.597896,0.08733 -0.283698,0.0026 -0.527984,-0.06406 -0.701766,-0.23461 -0.09002,0.0112 -0.181252,0.01757 -0.272852,0.01757 -0.08689,0 -0.172545,-0.0056 -0.257865,-0.01602 -0.174306,0.16947 -0.417557,0.23606 -0.700216,0.23306 -0.198379,-0.0016 -0.394277,-0.03463 -0.598413,-0.08733 -0.07904,-0.02086 -0.252951,-0.07748 -0.395325,-0.13798 -0.119343,-0.05111 -0.218099,-0.10483 -0.297139,-0.16743 -0.06647,-0.05267 -0.12044,-0.11148 -0.15813,-0.18758 -0.05182,-0.10431 -0.062,-0.22429 -0.02222,-0.33693 -0.03664,-0.08606 -0.04584,-0.18452 -0.01705,-0.29353 0.01309,-0.04951 0.03479,-0.09521 0.06201,-0.13591 -0.0057,-0.0214 -0.01085,-0.04369 -0.01395,-0.06769 -0.01989,-0.14289 0.02981,-0.27297 0.123507,-0.37414 0.04606,-0.05063 0.09597,-0.0856 0.147794,-0.108 -0.03821,-0.16168 -0.05839,-0.32813 -0.05839,-0.49816 0,-1.20267 0.978348,-2.17765 2.185396,-2.17765 z m 0.0083,0.17829 c -1.119302,0 -2.02675,0.90186 -2.02675,2.01434 0,0.21071 0.03264,0.41373 0.09302,0.60462 -0.0069,-4.9e-4 -0.01345,-0.001 -0.02015,-0.001 -0.08063,0 -0.153656,0.03102 -0.205156,0.08682 -0.06617,0.0716 -0.09548,0.15953 -0.08268,0.24753 0.0061,0.04196 0.02027,0.0794 0.04134,0.1142 -0.04442,0.03572 -0.07721,0.08542 -0.09302,0.14522 -0.01238,0.04689 -0.02544,0.14485 0.04082,0.24546 -0.0042,0.0065 -0.0082,0.01315 -0.01189,0.02015 -0.03986,0.07517 -0.0424,0.16016 -0.0072,0.23926 0.05332,0.11988 0.186088,0.21436 0.443384,0.31575 0.160069,0.06307 0.306692,0.10299 0.307992,0.10335 0.211619,0.0546 0.402756,0.08268 0.568441,0.08268 0.271753,0 0.474411,-0.07436 0.604097,-0.22014 0.113038,0.0195 0.229156,0.03049 0.347783,0.03049 0.11594,0 0.229412,-0.01034 0.34003,-0.02894 0.129733,0.14481 0.332209,0.21859 0.603064,0.21859 0.165684,0 0.356815,-0.02818 0.568441,-0.08268 0.0013,-3.6e-4 0.147923,-0.04025 0.307992,-0.10335 0.2573,-0.10139 0.389547,-0.19587 0.442867,-0.31575 0.03516,-0.0791 0.03261,-0.16406 -0.0072,-0.23926 -0.0037,-0.0069 -0.0077,-0.01367 -0.01188,-0.02067 0.06628,-0.10061 0.05372,-0.19804 0.04134,-0.24494 -0.01582,-0.0598 -0.04859,-0.10952 -0.09302,-0.14522 0.02108,-0.03476 0.03524,-0.0723 0.04134,-0.1142 0.0128,-0.08804 -0.0165,-0.17593 -0.08268,-0.24753 -0.0515,-0.0558 -0.124526,-0.08682 -0.205155,-0.08682 -0.0037,0 -0.0076,3.7e-4 -0.01137,5.2e-4 0.06029,-0.19078 0.09302,-0.39354 0.09302,-0.6041 0,-1.11248 -0.907448,-2.01434 -2.026749,-2.01434 z m 0,0.20773 c 1.003761,0 1.81746,0.80897 1.81746,1.80661 0,0.14397 -0.01759,0.28382 -0.04961,0.41807 -0.05209,-0.0575 -0.123958,-0.08941 -0.204638,-0.08941 -0.06743,0 -0.136799,0.02193 -0.206189,0.06563 -0.04604,0.02905 -0.09695,0.08103 -0.149345,0.14573 -0.04854,-0.06684 -0.116584,-0.11141 -0.194304,-0.12351 -0.01488,-0.003 -0.03003,-0.0041 -0.04496,-0.0041 -0.177449,0 -0.284158,0.1528 -0.324528,0.29042 -0.02003,0.04647 -0.11635,0.25844 -0.260966,0.40204 -0.220687,0.21919 -0.274779,0.44549 -0.164848,0.68782 -0.07156,0.0084 -0.144205,0.01343 -0.218074,0.01343 -0.07679,0 -0.152053,-0.006 -0.226343,-0.01498 0.109253,-0.2419 0.05446,-0.46742 -0.165882,-0.68627 -0.144625,-0.1436 -0.240419,-0.35554 -0.260449,-0.40204 -0.04036,-0.13762 -0.147089,-0.29042 -0.324528,-0.29042 -0.01494,0 -0.03009,0.0021 -0.04496,0.0041 -0.07772,0.01214 -0.145774,0.05609 -0.194304,0.12299 -0.05239,-0.06469 -0.103305,-0.11611 -0.149345,-0.14521 -0.0694,-0.0437 -0.138769,-0.06563 -0.206189,-0.06563 -0.07705,0 -0.14644,0.02905 -0.19792,0.08165 -0.03084,-0.1319 -0.04754,-0.26907 -0.04754,-0.41031 0,-0.99764 0.8137,-1.80661 1.817462,-1.80661 z m -0.646989,0.94413 c -0.09268,8.2e-4 -0.182357,0.0511 -0.228927,0.1385 -0.06774,0.12707 -0.0194,0.28483 0.108004,0.35243 0.06726,0.03567 0.09361,-0.10114 0.160197,-0.12454 0.05953,-0.0209 0.1613,0.07654 0.19327,0.01654 0.06774,-0.12706 0.0194,-0.28484 -0.108004,-0.35244 -0.03981,-0.0216 -0.08241,-0.03087 -0.12454,-0.03049 z m 1.309997,0 c -0.04213,-3e-4 -0.08473,0.0094 -0.12454,0.03049 -0.127403,0.06756 -0.175744,0.22538 -0.108004,0.35244 0.03197,0.0599 0.133223,-0.03754 0.192753,-0.01654 0.0666,0.02345 0.09343,0.16024 0.160714,0.12454 0.127393,-0.06756 0.175744,-0.22536 0.108004,-0.35243 -0.04657,-0.08739 -0.136247,-0.13768 -0.228927,-0.1385 z m -1.869136,0.27182 c -0.09282,0 -0.167949,0.07515 -0.167949,0.16795 0,0.09279 0.07513,0.16795 0.167949,0.16795 0.09282,0 0.167948,-0.07515 0.167948,-0.16795 0,-0.09279 -0.07513,-0.16795 -0.167948,-0.16795 z m 2.422074,0 c -0.09282,0 -0.167948,0.07515 -0.167948,0.16795 0,0.09279 0.07513,0.16795 0.167948,0.16795 0.09282,0 0.167948,-0.07515 0.167948,-0.16795 0,-0.09279 -0.07513,-0.16795 -0.167948,-0.16795 z m -1.562397,1.064365 c 0.07901,-0.09064 0.212523,-0.08472 0.236382,-0.0727 0.04436,0.02236 0.04188,0.08441 0.116272,0.13901 0.0744,-0.05455 0.07191,-0.11661 0.116272,-0.13901 0.02426,-0.01222 0.161724,-0.01597 0.240176,0.0771 0.02235,0.02651 -0.218789,0.179808 -0.349941,0.179856 -0.134557,4.9e-5 -0.383311,-0.156559 -0.359161,-0.184262 z m 0.830792,0.09142 c 0.144718,-0.152523 0.200377,-0.359855 0.200377,-0.494322 0,-0.23396 -0.303347,0.12202 -0.678511,0.12402 -0.281351,-0.0012 -0.52236,-0.2016 -0.625285,-0.2036 l -6e-6,-5.18e-4 c -0.03431,-5e-4 -0.05323,0.0216 -0.05323,0.0801 0,0.127423 0.04997,0.320234 0.178313,0.469864 0.02789,0.03251 0.322904,0.215998 0.506711,0.217555 0.169871,0.0014 0.449441,-0.169709 0.471631,-0.193099 z m -2.058922,-0.03595 c 0.02628,7e-4 0.05808,0.01179 0.09302,0.03359 0.111853,0.06979 0.327704,0.43476 0.406694,0.57671 0.05316,0.0955 0.18189,0.08025 0.19792,0.01395 0.0039,-0.03158 -0.01576,-0.07307 -0.07803,-0.11937 -0.07697,-0.05724 -0.11422,-0.12834 -0.12609,-0.19534 -0.02274,-0.11246 0.02832,-0.21479 0.09043,-0.22479 0.09802,-0.01522 0.141077,0.15038 0.141077,0.15038 0,0 0.115235,0.28444 0.313159,0.47904 0.176309,0.17339 0.2035,0.31619 0.10542,0.49247 -0.0029,0.0054 -0.0052,0.01102 -0.0083,0.01602 -3.89e-4,-10e-5 -6.16e-4,-4e-4 -10e-4,-5.1e-4 -0.0098,0.0167 -0.02004,0.03386 -0.03204,0.05116 -0.03558,0.05138 -0.08341,0.0892 -0.138493,0.1173 2.19e-4,7e-5 8.15e-4,4.5e-4 10e-4,5.2e-4 -0.0013,10e-4 -0.0028,0.0015 -0.0041,0.0021 -0.255506,0.12752 -0.673893,0.03686 -0.858862,-0.01034 -0.0034,-8.8e-4 -0.263139,-0.07311 -0.446484,-0.16691 -0.0041,-0.002 -0.0084,-0.0042 -0.0124,-0.0062 -0.0043,-0.002 -0.0087,-0.0047 -0.01292,-0.0067 -0.01364,-0.0074 -0.02652,-0.01474 -0.03876,-0.02274 -0.08268,-0.05108 -0.133937,-0.10635 -0.105937,-0.15865 0.08853,-0.1654 0.521703,0.25945 0.563273,0.11266 0.04157,-0.14674 -0.631868,-0.20862 -0.575158,-0.42117 0.05677,-0.21254 0.660809,0.28908 0.699699,0.22738 0.03884,-0.06169 0.01751,-0.10516 -0.256315,-0.2682 -0.273772,-0.16308 -0.465803,-0.26118 -0.356568,-0.37827 0.109236,-0.11707 0.611332,0.33228 0.611332,0.33228 0,0 0.160173,0.16428 0.205673,0.08888 0.0028,-0.0047 0.0035,-0.01005 0.0026,-0.01705 -0.01944,-0.07185 -0.198656,-0.23102 -0.324528,-0.36897 -0.0017,-0.001 -0.0035,-0.0032 -0.0052,-0.0052 -0.01146,-0.0126 -0.02383,-0.02552 -0.03411,-0.03772 -0.04671,-0.05398 -0.08073,-0.1026 -0.08733,-0.1385 -0.01812,-0.0989 0.01349,-0.14827 0.07131,-0.14727 z m 3.140376,0 c 0.05782,-0.0015 0.08944,0.04838 0.07131,0.14728 -0.0066,0.03588 -0.04066,0.08397 -0.08733,0.13797 l -5.17e-4,5.2e-4 c -0.01029,0.0121 -0.02213,0.02512 -0.03359,0.03772 -0.0011,0.002 -0.0024,0.0031 -0.0036,0.0041 -5e-4,10e-4 -0.001,0.0015 -0.0015,0.0021 -0.126078,0.13817 -0.305588,0.29726 -0.324528,0.36896 -9e-4,0.0065 -2.16e-4,0.01206 0.0026,0.01706 0.0455,0.07544 0.205672,-0.08889 0.205672,-0.08889 0,0 0.502098,-0.44934 0.611332,-0.33227 0.109234,0.11708 -0.08332,0.21519 -0.357084,0.37827 -0.273832,0.16304 -0.294639,0.2065 -0.255799,0.2682 0.03889,0.06168 0.642929,-0.43992 0.699699,-0.22738 0.05671,0.21255 -0.616728,0.27442 -0.575158,0.42116 0.04156,0.14679 0.474743,-0.27806 0.563273,-0.11265 0.028,0.05231 -0.02326,0.10755 -0.105937,0.15865 -0.01224,0.0076 -0.02563,0.01573 -0.03927,0.02273 -0.0042,0.002 -0.0081,0.0047 -0.0124,0.0067 -0.004,0.002 -0.0083,0.0042 -0.0124,0.0062 -0.183347,0.09384 -0.443601,0.16604 -0.447001,0.16692 -0.18451,0.0471 -0.6006,0.13747 -0.856278,0.01137 -7e-4,-2.9e-4 -0.0014,-7.5e-4 -0.0021,-10e-4 -0.05664,-0.02827 -0.105224,-0.06687 -0.141594,-0.11937 -0.01153,-0.0166 -0.02151,-0.03309 -0.03101,-0.04909 -3.45e-4,9e-5 -6.52e-4,4.2e-4 -0.001,5.1e-4 -0.0031,-0.0056 -0.0054,-0.01153 -0.0083,-0.01653 -0.09909,-0.17699 -0.07243,-0.32014 0.104386,-0.49403 0.197924,-0.19461 0.313159,-0.47956 0.313159,-0.47956 0,0 0.04307,-0.16506 0.141077,-0.14986 0.06224,0.0097 0.113504,0.1126 0.09043,0.22531 -0.01202,0.06676 -0.04938,0.13782 -0.126091,0.19482 -0.06227,0.04629 -0.08193,0.08726 -0.07803,0.11886 0.01602,0.0663 0.14476,0.08154 0.19792,-0.01396 0.07899,-0.14194 0.29483,-0.50639 0.406694,-0.57619 0.03494,-0.0218 0.06674,-0.03343 0.09302,-0.0341 z" /></g></g></svg>
