<?xml version="1.0" encoding="UTF-8" standalone="no"?>
<!-- Created with Inkscape (http://www.inkscape.org/) -->

<svg
   width="24"
   height="24"
   viewBox="0 0 6.3500005 6.35"
   version="1.1"
   id="svg1"
   xml:space="preserve"
   xmlns="http://www.w3.org/2000/svg"
   xmlns:svg="http://www.w3.org/2000/svg"><defs
     id="defs1"><linearGradient
       id="swatch90"
       gradientTransform="matrix(0.36044622,0,0,0.24067016,-262.83045,978.59892)"><stop
         style="stop-color:#060608;stop-opacity:1;"
         offset="0"
         id="stop90" /></linearGradient><linearGradient
       id="swatch40"
       gradientTransform="matrix(0.69793163,0,0,1.0871311,-1201.5046,4614.5142)"><stop
         style="stop-color:#b0e3ff;stop-opacity:1;"
         offset="0"
         id="stop40" /></linearGradient></defs><g
     id="layer4"
     style="display:inline"
     transform="translate(-3.4110108,-73.507167)"><path
       d="m 9.7457094,78.25205 c 0,0.88827 -0.723738,1.605108 -1.6109082,1.605108 l -3.1284316,-0.0075 c -0.879384,0 -1.595348,-0.724631 -1.595348,-1.612889 l 0.0075,-3.124497 c 0,-0.888252 0.723738,-1.605097 1.6109093,-1.605097 l 3.1284233,0.0075 c 0.8871642,0 1.6031352,0.724631 1.6031352,1.612884 l -0.0156,3.124477 m -4.2257405,-3.09331 c 0,-0.24934 -0.202333,-0.459712 -0.459145,-0.459712 -0.2568063,0 -0.4591453,0.202579 -0.4591453,0.459712 0,0.249339 0.202339,0.459711 0.4591453,0.459711 0.256812,0 0.459145,-0.210372 0.459145,-0.459711 m 0.0075,0.88825 c 0,-0.0075 -0.0075,-0.0234 -0.0234,-0.0234 H 4.6399386 c -0.0075,0 -0.0234,0.0075 -0.0234,0.0234 v 2.579079 c 0,0.0075 0.0075,0.0234 0.0234,0.0234 h 0.8638103 c 0.0075,0 0.0234,-0.0075 0.0234,-0.0234 v -2.579079 m 1.25293,0.303879 v -0.303879 c 0,-0.0234 -0.0075,-0.0312 -0.0312,-0.0312 h -0.638145 c -0.0234,0 -0.03893,0.0156 -0.03893,0.039 v 2.547905 c 0,0.0234 0.0075,0.0312 0.03113,0.0312 h 0.684838 c 0.0234,0 0.03893,-0.0156 0.03893,-0.039 0,-0.444118 0,-0.88825 0,-1.316802 0,-0.140253 0.0312,-0.272719 0.07779,-0.389586 0.1400873,-0.303872 0.6692853,-0.319465 0.7937913,0.0075 0.04673,0.132459 0.07779,0.280506 0.07779,0.444132 0,0.420758 0,0.84151 0,1.262256 0,0.0156 0.0075,0.0234 0.0234,0.0234 h 0.715945 c 0.0075,0 0.0234,-0.0075 0.0234,-0.0234 0,-0.475285 0,-0.935004 0,-1.379136 0,-0.179199 -0.0156,-0.350619 -0.03893,-0.529832 -0.05453,-0.350632 -0.264599,-0.592171 -0.614804,-0.662298 -0.381312,-0.07789 -0.848251,-0.0312 -1.0739303,0.311666 -0.0075,0.039 -0.0312,0.0312 -0.0312,0.0075 z"
       id="path1-4-8"
       style="stroke-width:0.999997" /></g></svg>
