<?xml version="1.0" encoding="UTF-8" standalone="no"?>
<!-- Created with Inkscape (http://www.inkscape.org/) -->

<svg
   width="34"
   height="24"
   viewBox="0 0 8.995834 6.35"
   version="1.1"
   id="svg1"
   xmlns="http://www.w3.org/2000/svg"
   xmlns:svg="http://www.w3.org/2000/svg">
  <defs
     id="defs1">
    <linearGradient
       id="swatch90"
       gradientTransform="matrix(0.36044622,0,0,0.24067016,-262.83045,978.59892)">
      <stop
         style="stop-color:#060608;stop-opacity:1;"
         offset="0"
         id="stop90" />
    </linearGradient>
    <linearGradient
       id="swatch40"
       gradientTransform="matrix(0.69793163,0,0,1.0871311,-1201.5046,4614.5142)">
      <stop
         style="stop-color:#b0e3ff;stop-opacity:1;"
         offset="0"
         id="stop40" />
    </linearGradient>
  </defs>
  <g
     id="layer4"
     style="display:inline"
     transform="translate(-5.7056884,-54.441691)">
    <g
       id="g7"
       transform="translate(8.4633549,7.6535621)">
      <path
         id="rect237"
         style="color:#000000;fill-rule:nonzero;-inkscape-stroke:none"
         d="m -1.0410927,47.715695 c -0.3915019,0.0282 -0.682738,0.424948 -0.6309832,0.812129 0.0053,1.029747 -0.010492,2.060659 0.00769,3.089699 0.044752,0.381756 0.4279599,0.653875 0.79837592,0.604469 1.796786,-0.0024 3.59387978,0.005 5.39047428,-0.0037 0.388653,-0.03242 0.675334,-0.426789 0.624163,-0.811602 -0.0053,-1.029746 0.01049,-2.060658 -0.0077,-3.089696 -0.04475,-0.381756 -0.42796,-0.653875 -0.798376,-0.604471 -1.7945244,0.0022 -3.58926188,-0.0043 -5.3836563,0.0032 z m 0.071333,0.355984 c 1.8268296,0.0042 3.6547618,-0.0083 5.480906,0.0062 0.25092,0.03498 0.316078,0.320366 0.282389,0.535127 -0.0054,0.992175 0.01068,1.985846 -0.0079,2.977105 -0.0446,0.246735 -0.318629,0.304104 -0.5273389,0.272693 -1.7641682,-0.0042 -3.5294396,0.0083 -5.2929227,-0.0062 -0.2509588,-0.03514 -0.3169177,-0.320056 -0.282913,-0.535124 0.00539,-0.992175 -0.01068,-1.985846 0.00787,-2.977108 0.032147,-0.157944 0.1808272,-0.276392 0.3398813,-0.272689 z" />
      <path
         id="rect2-6"
         style="color:#000000;fill-opacity:1;fill-rule:nonzero;-inkscape-stroke:none"
         d="m -1.4213609,47.071103 c -0.4845393,0.03468 -0.8561479,0.519069 -0.8003994,1.00153 -0.059575,0.154201 0.3138226,0.125321 0.3131314,0.04128 -0.052698,-0.32086 0.1458361,-0.680745 0.4817917,-0.721875 0.099884,-0.04417 0.3216799,0.06452 0.3096908,-0.08007 0.034378,-0.189688 -0.01042,-0.299288 -0.2166219,-0.245632 -0.029205,0.0011 -0.058397,0.0034 -0.087593,0.0048 z m 6.0145342,0.06685 c -0.03312,0.187525 0.0081,0.299842 0.213999,0.245632 0.356763,-0.01434 0.63285,0.345142 0.578008,0.692233 -0.05613,0.149913 0.314636,0.122068 0.313131,0.03809 0.05537,-0.44073 -0.217527,-0.907159 -0.653858,-1.015034 -0.146293,-0.04447 -0.30077,-0.03021 -0.45128,-0.03254 0,0.02388 0,0.04775 0,0.07162 z m -6.8149336,4.69994 c -0.058445,0.466823 0.2702875,0.950721 0.7393705,1.016765 0.120522,0.02176 0.2435533,0.01089 0.3652434,0.01353 -0.01578,-0.140827 0.072997,-0.387412 -0.151373,-0.317256 -0.3515057,0.04396 -0.6815387,-0.280151 -0.6401095,-0.637906 0.067575,-0.22284 -0.1783941,-0.128536 -0.3131314,-0.146743 0,0.02388 0,0.04775 0,0.07162 z m 7.6069406,0 c 0.05363,0.330799 -0.175499,0.688647 -0.519263,0.710377 -0.135294,0.01225 -0.337891,-0.0549 -0.272744,0.155761 -0.0603,0.198034 0.105262,0.172887 0.248154,0.162611 0.495019,-0.0019 0.906312,-0.483021 0.856984,-0.977607 0.07335,-0.193341 -0.252253,-0.129513 -0.313131,-0.0956 v 0.02716 z" />
      <rect
         style="fill-opacity:1;fill-rule:nonzero"
         id="rect6-8"
         width="0.84014589"
         height="0.63286525"
         x="-0.84888589"
         y="49.270283"
         ry="0.079375431" />
      <rect
         style="fill-opacity:1;fill-rule:nonzero"
         id="rect241"
         width="0.16691253"
         height="0.32925597"
         x="-0.84888589"
         y="50.709473"
         ry="0.092420422" />
      <rect
         style="fill-opacity:1;fill-rule:nonzero"
         id="rect256"
         width="0.16691253"
         height="0.32925597"
         x="-0.6335057"
         y="50.709473"
         ry="0.092420422" />
      <rect
         style="fill-opacity:1;fill-rule:nonzero"
         id="rect257"
         width="0.16691253"
         height="0.32925597"
         x="-0.41812551"
         y="50.709473"
         ry="0.092420422" />
      <rect
         style="fill-opacity:1;fill-rule:nonzero"
         id="rect258"
         width="0.16691253"
         height="0.32925597"
         x="-0.20274436"
         y="50.709473"
         ry="0.092420422" />
      <rect
         style="fill-opacity:1;fill-rule:nonzero"
         id="rect259"
         width="0.16691253"
         height="0.32925597"
         x="0.25096095"
         y="50.709473"
         ry="0.092420422" />
      <rect
         style="fill-opacity:1;fill-rule:nonzero"
         id="rect260"
         width="0.16691253"
         height="0.32925597"
         x="0.46634114"
         y="50.709473"
         ry="0.092420422" />
      <rect
         style="fill-opacity:1;fill-rule:nonzero"
         id="rect261"
         width="0.16691253"
         height="0.32925597"
         x="0.68172133"
         y="50.709473"
         ry="0.092420422" />
      <rect
         style="fill-opacity:1;fill-rule:nonzero"
         id="rect262"
         width="0.16691253"
         height="0.32925597"
         x="0.89710248"
         y="50.709473"
         ry="0.092420422" />
      <rect
         style="fill-opacity:1;fill-rule:nonzero"
         id="rect263"
         width="0.16691253"
         height="0.32925597"
         x="1.3508078"
         y="50.709473"
         ry="0.092420422" />
      <rect
         style="fill-opacity:1;fill-rule:nonzero"
         id="rect264"
         width="0.16691253"
         height="0.32925597"
         x="1.566188"
         y="50.709473"
         ry="0.092420422" />
      <rect
         style="fill-opacity:1;fill-rule:nonzero"
         id="rect265"
         width="0.16691253"
         height="0.32925597"
         x="1.7815682"
         y="50.709473"
         ry="0.092420422" />
      <rect
         style="fill-opacity:1;fill-rule:nonzero"
         id="rect266"
         width="0.16691253"
         height="0.32925597"
         x="1.9969498"
         y="50.709473"
         ry="0.092420422" />
      <rect
         style="fill-opacity:1;fill-rule:nonzero"
         id="rect267"
         width="0.16691253"
         height="0.32925597"
         x="2.450654"
         y="50.709473"
         ry="0.092420422" />
      <rect
         style="fill-opacity:1;fill-rule:nonzero"
         id="rect268"
         width="0.16691253"
         height="0.32925597"
         x="2.6660347"
         y="50.709473"
         ry="0.092420422" />
      <rect
         style="fill-opacity:1;fill-rule:nonzero"
         id="rect269"
         width="0.16691253"
         height="0.32925597"
         x="2.8814144"
         y="50.709473"
         ry="0.092420422" />
      <rect
         style="fill-opacity:1;fill-rule:nonzero"
         id="rect270"
         width="0.16691253"
         height="0.32925597"
         x="3.096796"
         y="50.709473"
         ry="0.092420422" />
    </g>
  </g>
</svg>
