<?xml version="1.0" encoding="UTF-8" standalone="no"?>
<!-- Created with Inkscape (http://www.inkscape.org/) -->

<svg
   width="102"
   height="126.00001"
   viewBox="0 0 26.987502 33.337502"
   version="1.1"
   id="svg1"
   xml:space="preserve"
   xmlns="http://www.w3.org/2000/svg"
   xmlns:svg="http://www.w3.org/2000/svg"><defs
     id="defs1"><linearGradient
       id="swatch90"
       gradientTransform="matrix(0.36044622,0,0,0.24067016,-262.83045,978.59892)"><stop
         style="stop-color:#060608;stop-opacity:1;"
         offset="0"
         id="stop90" /></linearGradient><linearGradient
       id="swatch40"
       gradientTransform="matrix(0.69793163,0,0,1.0871311,-1201.5046,4614.5142)"><stop
         style="stop-color:#b0e3ff;stop-opacity:1;"
         offset="0"
         id="stop40" /></linearGradient></defs><g
     id="layer8"
     transform="translate(-371.14189)"><path
       id="rect38"
       style="display:inline;fill-rule:nonzero"
       d="m 352.35632,-10.583334 v 33.337501 h 26.9875 v -33.337501 z m 13.3966,8.4211917 c 0.67275,-0.00313 1.37449,0.048181 2.05052,0.1607137 1.06794,0.177992 1.96732,0.9788693 1.96732,2.04535329 V 3.7909829 c 0,1.0988459 -0.87316,1.999878 -1.96732,1.999878 h -3.93102 c -1.33455,0 -2.45825,1.1459074 -2.45825,2.4448121 v 1.797823 h -1.35289 c -1.14371,0 -1.81213,-0.8301841 -2.09186,-1.9952269 -0.37734,-1.5651565 -0.36132,-2.5002778 0,-3.9992393 0.31324,-1.3077297 1.31506,-1.9952271 2.45876,-1.9952271 h 1.47691 3.93516 V 1.5435748 h -3.93516 V 0.04392469 c 0,-1.13562169 0.30205,-1.75115129 1.96733,-2.04535329 0.56529,-0.1000293 1.20776,-0.1575837 1.8805,-0.1607137 z m -2.12803,1.20612799 c -0.40795,0 -0.73847,0.3375837 -0.73846,0.75240888 0,0.41335459 0.33051,0.74775801 0.73846,0.74775801 0.40647,0 0.73845,-0.33440342 0.73845,-0.74775801 0,-0.41482528 -0.33198,-0.75240888 -0.73845,-0.75240888 z m 6.6368,2.99981701 h 1.47691 c 1.14516,0 1.68519,0.8566643 1.96784,1.9952271 0.39338,1.5813374 0.41086,2.7665315 0,3.9992393 -0.39775,1.1974038 -0.82414,1.9952269 -1.96784,1.9952269 h -1.96784 -3.93051 v 0.500228 h 3.93051 v 1.49965 c 0,1.135621 -0.9766,1.713031 -1.96732,1.999878 -1.49046,0.432479 -2.68534,0.366283 -3.93102,0 -1.04025,-0.305968 -1.96733,-0.933393 -1.96733,-1.999878 V 8.286316 c 0,-1.078252 0.89066,-1.9998781 1.96733,-1.9998781 h 3.93102 c 1.30979,0 2.45825,-1.1406523 2.45825,-2.495455 z m -2.21072,9.4893433 c -0.40649,0 -0.73845,0.334405 -0.73845,0.747758 0,0.414826 0.33196,0.752409 0.73845,0.752409 0.40795,0 0.73846,-0.337583 0.73846,-0.752409 0,-0.413353 -0.33051,-0.747758 -0.73846,-0.747758 z"
       transform="translate(18.785379,10.583334)" /></g></svg>
