<?xml version="1.0" encoding="UTF-8" standalone="no"?>
<!-- Created with Inkscape (http://www.inkscape.org/) -->

<svg
   width="102"
   height="126.00001"
   viewBox="0 0 26.987502 33.337502"
   version="1.1"
   id="svg1"
   xml:space="preserve"
   xmlns="http://www.w3.org/2000/svg"
   xmlns:svg="http://www.w3.org/2000/svg"><defs
     id="defs1"><linearGradient
       id="swatch90"
       gradientTransform="matrix(0.36044622,0,0,0.24067016,-262.83045,978.59892)"><stop
         style="stop-color:#060608;stop-opacity:1;"
         offset="0"
         id="stop90" /></linearGradient><linearGradient
       id="swatch40"
       gradientTransform="matrix(0.69793163,0,0,1.0871311,-1201.5046,4614.5142)"><stop
         style="stop-color:#b0e3ff;stop-opacity:1;"
         offset="0"
         id="stop40" /></linearGradient></defs><g
     id="layer7"
     transform="translate(-186.2044)"><path
       id="path196"
       style="display:inline;fill-opacity:1;stroke-width:0.529167"
       d="m 198.59202,7.1437565 -6.78656,3.9190395 v 3.3932 l 3.99212,-2.30525 v 9.23525 l 2.79444,1.59678 v -12.44584 z m 0.50616,0 v 3.3931795 12.44584 l 0.93424,-0.53384 c 0.0181,2.06751 1.70692,3.74481 3.77876,3.74481 2.08352,0 3.77965,-1.69609 3.77965,-3.77964 0,-2.08353 -1.69613,-3.77963 -3.77965,-3.77963 -0.69989,0 -1.35556,0.19215 -1.91841,0.5253 v -1.97023 l 1.59681,0.92212 v -3.04675 l -1.59681,-0.92225 v -1.99192 l 3.99209,2.30525 v -3.3932 z m 4.713,12.1487395 c 1.72817,0 3.12224,1.39346 3.12224,3.12161 0,1.72819 -1.39407,3.12226 -3.12224,3.12226 -1.72818,0 -3.12165,-1.39407 -3.12165,-3.12226 0,-1.72815 1.39347,-3.12161 3.12165,-3.12161 z m -1.40728,0.62453 v 0.79214 h -0.34304 v 0.29253 h -0.74676 v 0.5247 h 0.74676 v 0.65586 h -0.74676 v 0.52469 h 0.74676 v 0.59533 h -0.74676 v 0.5247 h 0.74676 v 0.29268 h 0.34304 v 0.79212 h 0.52468 v -0.79212 h 0.6256 v 0.79212 h 0.52471 v -0.79212 h 0.61545 v 0.79212 h 0.52471 v -0.79212 h 0.34304 v -0.29268 h 0.74674 v -0.5247 h -0.74674 v -0.59533 h 0.74674 v -0.52469 h -0.74674 v -0.65586 h 0.74674 v -0.5247 h -0.74674 v -0.29253 h -0.34304 v -0.79214 h -0.52471 v 0.79214 h -0.61545 v -0.79214 h -0.52471 v 0.79214 h -0.6256 v -0.79214 z m 0.24213,1.34199 h 2.33087 v 2.31068 h -2.33087 z m 1.5085,0.28252 a 0.21189529,0.21189529 0 0 0 -0.21194,0.21196 0.21189529,0.21189529 0 0 0 0.0609,0.14804 l -0.1044,0.20813 a 0.36324907,0.36324907 0 0 0 -0.0825,-0.012 0.36324907,0.36324907 0 0 0 -0.26797,0.1188 l -0.17214,-0.1299 a 0.22198553,0.22198553 0 0 0 0.024,-0.10009 0.22198553,0.22198553 0 0 0 -0.22206,-0.22185 0.22198553,0.22198553 0 0 0 -0.22208,0.22185 0.22198553,0.22198553 0 0 0 0.22208,0.22208 0.22198553,0.22198553 0 0 0 0.11567,-0.0327 l 0.18876,0.14242 a 0.36324907,0.36324907 0 0 0 -0.0295,0.14212 0.36324907,0.36324907 0 0 0 0.0849,0.23233 l -0.2187,0.3082 a 0.22072429,0.22072429 0 0 0 -0.074,-0.012 0.22072429,0.22072429 0 0 0 -0.22074,0.22072 0.22072429,0.22072429 0 0 0 0.22074,0.22074 0.22072429,0.22072429 0 0 0 0.22048,-0.22074 0.22072429,0.22072429 0 0 0 -0.0481,-0.1368 l 0.21262,-0.29995 a 0.36324907,0.36324907 0 0 0 0.18609,0.0523 0.36324907,0.36324907 0 0 0 0.17685,-0.0469 l 0.14624,0.21622 a 0.20685019,0.20685019 0 0 0 -0.0432,0.12572 0.20685019,0.20685019 0 0 0 0.20679,0.20677 0.20685019,0.20685019 0 0 0 0.20677,-0.20677 0.20685019,0.20685019 0 0 0 -0.20677,-0.20699 0.20685019,0.20685019 0 0 0 -0.0648,0.012 l -0.15008,-0.22184 a 0.36324907,0.36324907 0 0 0 0.0914,-0.2406 0.36324907,0.36324907 0 0 0 -5.4e-4,-0.008 l 0.27983,0.005 a 0.21567917,0.21567917 0 0 0 0.2088,0.16335 0.21567917,0.21567917 0 0 0 0.21556,-0.21556 0.21567917,0.21567917 0 0 0 -0.21556,-0.21578 0.21567917,0.21567917 0 0 0 -0.20408,0.14694 l -0.30879,-0.005 a 0.36324907,0.36324907 0 0 0 -0.14371,-0.17728 l 0.0986,-0.19576 a 0.21189529,0.21189529 0 0 0 0.0447,0.007 0.21189529,0.21189529 0 0 0 0.21195,-0.21195 0.21189529,0.21189529 0 0 0 -0.21195,-0.21197 z" /></g></svg>
