<?xml version="1.0" encoding="UTF-8" standalone="no"?>
<!-- Created with Inkscape (http://www.inkscape.org/) -->

<svg
   width="102"
   height="126.00001"
   viewBox="0 0 26.987502 33.337502"
   version="1.1"
   id="svg1"
   xml:space="preserve"
   xmlns="http://www.w3.org/2000/svg"
   xmlns:svg="http://www.w3.org/2000/svg"><defs
     id="defs1"><linearGradient
       id="swatch90"
       gradientTransform="matrix(0.36044622,0,0,0.24067016,-262.83045,978.59892)"><stop
         style="stop-color:#060608;stop-opacity:1;"
         offset="0"
         id="stop90" /></linearGradient><linearGradient
       id="swatch40"
       gradientTransform="matrix(0.69793163,0,0,1.0871311,-1201.5046,4614.5142)"><stop
         style="stop-color:#b0e3ff;stop-opacity:1;"
         offset="0"
         id="stop40" /></linearGradient></defs><g
     id="layer8"
     transform="translate(-408.12941)"><path
       id="rect39"
       style="display:inline;fill-rule:nonzero"
       d="m 389.34425,-10.583334 v 33.337501 h 26.9875 v -33.337501 z m 12.38735,7.1437503 V -0.04650907 12.399243 l -2.79466,-1.596801 V 1.567346 l -3.992,2.3052857 V 0.47955703 Z m 0.50643,0 6.78667,3.91914073 V 3.8726317 L 405.03218,1.567346 v 1.9921265 l 1.5968,0.9219076 v 3.0468426 l -1.5968,-0.9219076 v 1.9699056 c 0.56285,-0.3331496 1.21885,-0.5250325 1.91874,-0.5250325 2.08352,0 3.77962,1.6960865 3.77962,3.7796148 0,2.083547 -1.6961,3.779614 -3.77962,3.779614 -2.07183,0 -3.76099,-1.677483 -3.77909,-3.744991 l -0.9338,0.533817 V -0.04650907 Z m 4.71289,12.1486129 c -1.72817,0 -3.12177,1.3936248 -3.12177,3.1217738 0,1.728188 1.3936,3.12229 3.12177,3.12229 1.72817,0 3.12229,-1.394102 3.12229,-3.12229 0,-1.728149 -1.39412,-3.1217738 -3.12229,-3.1217738 z m -1.40766,0.6247681 h 0.52503 v 0.7921997 h 0.62529 V 9.3337973 h 0.52503 v 0.7921997 h 0.61546 V 9.3337973 h 0.52452 v 0.7921997 h 0.34313 v 0.292489 h 0.74673 v 0.524515 h -0.74673 v 0.655774 h 0.74673 v 0.525033 h -0.74673 v 0.595312 h 0.74673 v 0.524516 h -0.74673 v 0.292489 h -0.34313 v 0.7922 h -0.52452 v -0.7922 h -0.61546 v 0.7922 h -0.52503 v -0.7922 h -0.62529 v 0.7922 h -0.52503 v -0.7922 h -0.34262 v -0.292489 h -0.74672 V 12.71912 h 0.74672 v -0.595312 h -0.74672 v -0.525033 h 0.74672 v -0.655774 h -0.74672 v -0.524515 h 0.74672 v -0.292489 h 0.34262 z m 0.24236,1.3420367 v 2.310454 h 2.33112 v -2.310454 z m 1.50844,0.282154 v 0.0026 a 0.21189529,0.21189529 0 0 1 0.21239,0.211874 0.21189529,0.21189529 0 0 1 -0.21239,0.211873 0.21189529,0.21189529 0 0 1 -0.0444,-0.0067 l -0.0987,0.195337 a 0.36324907,0.36324907 0 0 1 0.14366,0.17725 l 0.30903,0.0052 a 0.21567917,0.21567917 0 0 1 0.20412,-0.146761 0.21567917,0.21567917 0 0 1 0.21549,0.215491 0.21567917,0.21567917 0 0 1 -0.21549,0.21549 0.21567917,0.21567917 0 0 1 -0.20877,-0.163297 l -0.28009,-0.0047 a 0.36324907,0.36324907 0 0 1 5.2e-4,0.0078 0.36324907,0.36324907 0 0 1 -0.0915,0.240813 l 0.15038,0.221692 a 0.20685019,0.20685019 0 0 1 0.0646,-0.01189 0.20685019,0.20685019 0 0 1 0.20671,0.206706 0.20685019,0.20685019 0 0 1 -0.20671,0.207222 0.20685019,0.20685019 0 0 1 -0.2067,-0.207222 0.20685019,0.20685019 0 0 1 0.0434,-0.125574 l -0.14625,-0.216008 a 0.36324907,0.36324907 0 0 1 -0.17725,0.04651 0.36324907,0.36324907 0 0 1 -0.18603,-0.05219 l -0.21239,0.30024 a 0.22072429,0.22072429 0 0 1 0.0481,0.136426 0.22072429,0.22072429 0 0 1 -0.22066,0.221175 0.22072429,0.22072429 0 0 1 -0.22066,-0.221175 0.22072429,0.22072429 0 0 1 0.22066,-0.220658 0.22072429,0.22072429 0 0 1 0.0739,0.0124 l 0.21911,-0.308508 a 0.36324907,0.36324907 0 0 1 -0.0853,-0.232028 0.36324907,0.36324907 0 0 1 0.0294,-0.142627 l -0.18862,-0.14211 a 0.22198553,0.22198553 0 0 1 -0.11575,0.03256 0.22198553,0.22198553 0 0 1 -0.22169,-0.222208 0.22198553,0.22198553 0 0 1 0.22169,-0.221692 0.22198553,0.22198553 0 0 1 0.22221,0.221692 0.22198553,0.22198553 0 0 1 -0.0238,0.100252 l 0.17208,0.129708 a 0.36324907,0.36324907 0 0 1 0.26768,-0.118339 0.36324907,0.36324907 0 0 1 0.0827,0.01188 l 0.10439,-0.208256 a 0.21189529,0.21189529 0 0 1 -0.061,-0.147794 0.21189529,0.21189529 0 0 1 0.21188,-0.21239 z"
       transform="translate(18.785379,10.583334)" /></g></svg>
