<?xml version="1.0" encoding="UTF-8" standalone="no"?>
<!-- Created with Inkscape (http://www.inkscape.org/) -->

<svg
   width="24"
   height="24"
   viewBox="0 0 6.3500005 6.35"
   version="1.1"
   id="svg1"
   xml:space="preserve"
   xmlns="http://www.w3.org/2000/svg"
   xmlns:svg="http://www.w3.org/2000/svg"><defs
     id="defs1"><linearGradient
       id="swatch90"
       gradientTransform="matrix(0.36044622,0,0,0.24067016,-262.83045,978.59892)"><stop
         style="stop-color:#060608;stop-opacity:1;"
         offset="0"
         id="stop90" /></linearGradient><linearGradient
       id="swatch40"
       gradientTransform="matrix(0.69793163,0,0,1.0871311,-1201.5046,4614.5142)"><stop
         style="stop-color:#b0e3ff;stop-opacity:1;"
         offset="0"
         id="stop40" /></linearGradient></defs><g
     id="layer4"
     style="display:inline"
     transform="translate(-12.961807,-73.507167)"><g
       id="g9"
       transform="translate(-0.25480372,-2.8948041)"><path
         d="m 17.909429,76.40197 h -3.043354 c -0.906036,0 -1.649451,0.719869 -1.649451,1.614022 v 3.121957 c 0,0.886576 0.735671,1.614022 1.649451,1.614022 h 3.051098 c 0.906036,0 1.649451,-0.719868 1.649451,-1.614022 V 78.008414 C 19.55888,77.121839 18.823209,76.40197 17.909429,76.40197 Z m 0.549817,5.273987 h -1.192561 c -0.0077,0 -0.01549,0 -0.01549,-0.0076 l -1.115124,-1.583709 c 0,0 -0.0077,0 -0.0077,0 -0.449146,0.507696 -0.890548,1.007816 -1.324207,1.500358 -0.02323,0.03031 -0.05421,0.05305 -0.07744,0.07578 -0.0077,0.0076 -0.01549,0.0076 -0.02323,0.0076 H 14.37825 c -0.0077,0 -0.01549,0 -0.0077,-0.0076 l 1.5875,-1.803461 c 0.0077,-0.0076 0.0077,-0.01515 0,-0.02273 l -1.579756,-2.250537 c 0,0 0,-0.0076 0,-0.0076 h 1.200305 c 0.0077,0 0.0077,0 0.01549,0.0076 l 1.053172,1.492781 c 0,0 0,0 0.0077,0 l 1.30872,-1.492781 c 0.0077,-0.0076 0.01549,-0.0076 0.02323,-0.0076 h 0.325244 c 0.01549,0 0.01549,0.0076 0.0077,0.01515 l -1.502317,1.704953 c -0.0077,0.0076 -0.0077,0.01515 0,0.02273 l 1.649451,2.349046 c 0,0 0,0.0076 -0.0077,0.0076 z"
         id="path1-8"
         style="stroke-width:0.114904" /><path
         d="m 15.439124,77.849285 c 0,0 0,0 0,0 h -0.518842 c -0.0077,0 -0.0077,0.0076 -0.0077,0.01515 l 2.493537,3.538723 c 0,0 0,0 0.0077,0 h 0.511098 c 0.0077,0 0.0077,-0.0076 0.0077,-0.01515 z"
         id="path2-3"
         style="stroke-width:0.114904" /></g></g></svg>
